<?xml version="1.0" standalone="no"?>
<!DOCTYPE svg PUBLIC "-//W3C//DTD SVG 20010904//EN"
 "http://www.w3.org/TR/2001/REC-SVG-20010904/DTD/svg10.dtd">
<svg version="1.0" xmlns="http://www.w3.org/2000/svg"
 width="211.000000pt" height="236.000000pt" viewBox="0 0 211.000000 236.000000"
 preserveAspectRatio="xMidYMid meet">

<g transform="translate(0.000000,236.000000) scale(0.100000,-0.100000)"
fill="#000000" stroke="none">
<path d="M180 1916 l0 -94 45 -11 c24 -6 60 -25 79 -41 67 -60 66 -48 66 -562
0 -263 5 -491 10 -528 32 -205 201 -370 410 -403 235 -36 471 120 532 352 14
57 17 120 17 444 1 426 1 427 69 448 32 9 44 8 70 -5 17 -9 34 -22 39 -28 4
-7 10 -150 13 -318 7 -368 11 -382 119 -491 70 -69 136 -103 227 -116 l44 -6
0 95 0 96 -43 11 c-50 12 -86 38 -119 84 -22 31 -23 39 -28 342 l-5 310 -28
57 c-34 69 -91 121 -164 148 -132 49 -276 -5 -347 -130 l-31 -55 -5 -415 c-5
-395 -6 -417 -26 -461 -86 -186 -321 -232 -467 -91 -21 20 -48 55 -60 77 -22
39 -22 51 -27 560 -5 513 -6 521 -28 577 -27 68 -105 157 -169 195 -42 24
-135 52 -175 53 -16 0 -18 -11 -18 -94z"/>
</g>
</svg>
