<?xml version="1.0" standalone="no"?>
<!DOCTYPE svg PUBLIC "-//W3C//DTD SVG 20010904//EN"
 "http://www.w3.org/TR/2001/REC-SVG-20010904/DTD/svg10.dtd">
<svg version="1.0" xmlns="http://www.w3.org/2000/svg"
 width="512.000000pt" height="512.000000pt" viewBox="0 0 512.000000 512.000000"
 preserveAspectRatio="xMidYMid meet">

<g transform="translate(0.000000,512.000000) scale(0.100000,-0.100000)"
fill="#000000" stroke="none">
<path d="M2325 5109 c-621 -64 -1172 -329 -1600 -770 -627 -648 -865 -1548
-641 -2424 91 -352 277 -714 509 -990 417 -496 975 -806 1622 -902 167 -24
534 -24 695 1 486 74 911 261 1273 559 425 351 731 835 861 1367 55 228 70
352 70 610 0 258 -14 382 -70 610 -47 188 -98 330 -189 515 -369 755 -1086
1280 -1920 1406 -151 23 -473 33 -610 18z m545 -404 c912 -137 1636 -821 1814
-1715 143 -721 -75 -1441 -594 -1960 -651 -652 -1621 -821 -2457 -430 -224
105 -416 242 -604 429 -250 251 -417 521 -525 848 -309 936 45 1953 866 2496
279 184 644 312 985 346 130 13 383 6 515 -14z"/>
<path d="M1630 3394 c-158 -41 -315 -163 -378 -294 -66 -136 -67 -146 -67
-660 l0 -465 192 -3 192 -2 3 452 c3 503 1 483 72 546 70 61 169 67 243 13 71
-52 77 -75 84 -346 7 -254 15 -307 64 -408 59 -124 181 -232 324 -285 97 -36
272 -43 368 -14 185 57 337 210 398 402 14 43 19 106 24 300 7 277 12 299 84
351 74 54 173 48 244 -14 69 -60 68 -52 71 -550 l3 -447 192 2 192 3 0 465 c0
510 -1 524 -60 645 -91 188 -281 311 -500 322 -181 10 -311 -40 -438 -169 -62
-63 -87 -97 -117 -161 -51 -110 -60 -167 -60 -396 0 -111 -5 -213 -11 -236
-50 -182 -300 -196 -375 -20 -4 11 -11 133 -14 270 -6 235 -8 254 -32 317 -73
195 -223 333 -413 383 -73 19 -212 18 -285 -1z"/>
</g>
</svg>
