<?xml version="1.0" standalone="no"?>
<!DOCTYPE svg PUBLIC "-//W3C//DTD SVG 20010904//EN"
 "http://www.w3.org/TR/2001/REC-SVG-20010904/DTD/svg10.dtd">
<svg version="1.0" xmlns="http://www.w3.org/2000/svg"
 width="212.000000pt" height="179.000000pt" viewBox="0 0 212.000000 179.000000"
 preserveAspectRatio="xMidYMid meet">

<g transform="translate(0.000000,179.000000) scale(0.100000,-0.100000)"
fill="#000000" stroke="none">
<path d="M899 1766 c-143 -30 -279 -104 -392 -214 -73 -71 -110 -122 -167
-236 -44 -85 -48 -90 -92 -103 -144 -47 -247 -204 -236 -362 11 -145 114 -275
249 -315 40 -12 46 -19 79 -82 109 -215 274 -354 500 -426 65 -20 95 -23 225
-23 143 1 154 2 245 33 124 43 215 98 307 186 83 78 147 162 188 247 26 53 31
57 84 74 44 14 69 31 122 84 58 58 70 76 88 135 26 86 26 136 0 222 -18 59
-30 77 -88 135 -49 49 -79 70 -118 83 -50 17 -52 19 -87 93 -107 225 -308 396
-541 459 -82 22 -282 27 -366 10z m315 -246 c43 -11 101 -32 129 -47 71 -38
186 -155 224 -229 l32 -60 -64 -66 c-53 -55 -67 -76 -84 -133 -26 -84 -26
-135 -1 -219 16 -52 33 -79 77 -127 l57 -61 -25 -46 c-13 -26 -52 -77 -87
-113 -104 -111 -241 -169 -399 -169 -212 0 -389 106 -498 297 l-19 32 46 49
c85 90 118 195 97 307 -15 80 -41 130 -102 193 l-52 53 35 67 c113 219 385
336 634 272z m632 -535 c38 -24 57 -63 57 -111 0 -114 -130 -171 -216 -94 -30
26 -32 33 -32 93 0 51 4 70 20 87 44 50 117 60 171 25z m-1418 -1 c68 -48 68
-170 0 -218 -33 -23 -109 -21 -142 5 -33 26 -56 69 -56 104 0 40 29 94 59 110
35 19 111 19 139 -1z"/>
</g>
</svg>
